<svg width="18" height="17" viewBox="0 0 18 17" fill="none" xmlns="http://www.w3.org/2000/svg">
<path d="M8.15077 0.507231C8.54204 -0.122084 9.45796 -0.122082 9.84924 0.507232L12.1357 4.18463C12.2733 4.40605 12.492 4.56494 12.7452 4.62745L16.9491 5.6656C17.6685 5.84325 17.9516 6.71434 17.474 7.28094L14.6831 10.5918C14.5151 10.7912 14.4315 11.0483 14.4503 11.3083L14.7621 15.6273C14.8154 16.3665 14.0744 16.9048 13.388 16.6257L9.37669 14.9945C9.13516 14.8963 8.86483 14.8963 8.62331 14.9945L4.61203 16.6257C3.92558 16.9048 3.18459 16.3665 3.23794 15.6273L3.5497 11.3083C3.56847 11.0483 3.48494 10.7912 3.3169 10.5918L0.52603 7.28094C0.0484277 6.71434 0.331462 5.84325 1.05089 5.6656L5.25484 4.62745C5.50797 4.56494 5.72667 4.40605 5.86434 4.18463L8.15077 0.507231Z" fill="white"/>
</svg>
