<svg width="19" height="20" viewBox="0 0 19 20" fill="none" xmlns="http://www.w3.org/2000/svg">
<g clip-path="url(#clip0_4050_11753)">
<path d="M13.4112 4.74663H11.8696C11.8696 2.97864 10.4316 1.54064 8.66361 1.54064C6.89561 1.54064 5.45762 2.97864 5.45762 4.74663H3.91602C3.91697 2.12965 6.04663 0 8.66457 0C11.2825 0 13.4112 2.12965 13.4112 4.74663Z" fill="black"/>
<path d="M15.9541 5.48242H1.436L0.429688 16.8396H6.02539V15.299H2.11327L2.84713 7.02306H14.5468L14.7751 9.53356H16.3225L15.9541 5.48242Z" fill="black"/>
<path d="M18.3594 14.6433H9.56445V16.5619H18.3594V14.6433Z" fill="black"/>
<path d="M14.9225 11.2051H13.0039V20H14.9225V11.2051Z" fill="black"/>
</g>
<defs>
<clipPath id="clip0_4050_11753">
<rect width="18.2609" height="20" fill="white"/>
</clipPath>
</defs>
</svg>
