<svg width="24" height="24" viewBox="0 0 24 24" fill="none" xmlns="http://www.w3.org/2000/svg">
<path d="M10.7883 1.83093C11.1335 1.17668 12.0705 1.17668 12.4157 1.83093L14.9335 6.60298C15.0666 6.85528 15.3092 7.03156 15.5903 7.0802L20.9068 8.00009C21.6357 8.12621 21.9253 9.01736 21.4097 9.54783L17.6492 13.417C17.4504 13.6216 17.3577 13.9068 17.3984 14.1892L18.1664 19.5297C18.2717 20.2619 17.5136 20.8127 16.8498 20.4863L12.0079 18.1055C11.752 17.9797 11.452 17.9797 11.196 18.1055L6.3542 20.4863C5.69037 20.8127 4.93232 20.2619 5.03761 19.5297L5.80564 14.1892C5.84625 13.9068 5.75357 13.6216 5.55475 13.417L1.7943 9.54783C1.27873 9.01736 1.56828 8.12621 2.29719 8.00009L7.6137 7.0802C7.89479 7.03156 8.13742 6.85528 8.27054 6.60298L10.7883 1.83093Z" fill="#D1D1D1"/>
<path d="M6.35334 20.4863L11.0871 18.1587C11.4018 18.0039 11.6011 17.6838 11.6011 17.3331V1.77481C11.6011 1.39082 11.0868 1.26347 10.9077 1.60308L8.26968 6.60298C8.13656 6.85528 7.89393 7.03156 7.61284 7.0802L2.29633 8.00009C1.56742 8.12621 1.27787 9.01736 1.79343 9.54783L5.55389 13.417C5.75271 13.6216 5.84538 13.9068 5.80478 14.1892L5.03675 19.5297C4.93145 20.2619 5.68951 20.8127 6.35334 20.4863Z" fill="#FFC702"/>
</svg>
