<svg width="34" height="35" viewBox="0 0 34 35" fill="none" xmlns="http://www.w3.org/2000/svg">
<path d="M33.075 25.4526L28.3302 20.7078C26.6357 19.0132 23.7549 19.6911 23.0771 21.894C22.5687 23.4192 20.8741 24.2664 19.349 23.9275C15.9599 23.0802 11.3845 18.6743 10.5372 15.1157C10.0289 13.5905 11.0456 11.8959 12.5707 11.3876C14.7737 10.7098 15.4515 7.82902 13.7569 6.13445L9.01212 1.38965C7.65647 0.20345 5.62298 0.20345 4.43678 1.38965L1.21709 4.60934C-2.00259 7.99848 1.55601 16.9797 9.5205 24.9442C17.485 32.9087 26.4662 36.6368 29.8554 33.2476L33.075 30.0279C34.2613 28.6723 34.2613 26.6388 33.075 25.4526Z" fill="white"/>
</svg>
