<svg width="12" height="13" viewBox="0 0 12 13" fill="none" xmlns="http://www.w3.org/2000/svg">
<path d="M8.98691 7.81562C8.63648 7.81643 8.29121 7.90012 7.97929 8.05985C7.66738 8.21959 7.39768 8.45083 7.1922 8.73469L4.39875 6.87259C4.57479 6.4032 4.57479 5.88593 4.39875 5.41654L7.1922 3.55443C7.50574 3.97951 7.96059 4.27885 8.47502 4.39866C8.98946 4.51848 9.52976 4.45092 9.99886 4.20812C10.468 3.96533 10.8351 3.56321 11.0343 3.07402C11.2335 2.58482 11.2518 2.04062 11.0858 1.53918C10.9198 1.03774 10.5804 0.611935 10.1286 0.338264C9.67682 0.0645929 9.14226 -0.039004 8.62095 0.0460858C8.09965 0.131176 7.62577 0.399374 7.28446 0.802497C6.94315 1.20562 6.75678 1.71724 6.75884 2.24544C6.76245 2.3266 6.77063 2.4075 6.78334 2.48774L3.78046 4.48966C3.46045 4.20118 3.06365 4.01167 2.63814 3.94408C2.21262 3.87649 1.77663 3.93373 1.38298 4.10885C0.989326 4.28398 0.654891 4.56949 0.420179 4.93079C0.185467 5.2921 0.0605469 5.71371 0.0605469 6.14456C0.0605469 6.57541 0.185467 6.99702 0.420179 7.35833C0.654891 7.71964 0.989326 8.00515 1.38298 8.18027C1.77663 8.3554 2.21262 8.41264 2.63814 8.34505C3.06365 8.27746 3.46045 8.08795 3.78046 7.79946L6.78334 9.80138C6.77063 9.88163 6.76245 9.96252 6.75884 10.0437C6.75884 10.4844 6.88951 10.9151 7.13433 11.2815C7.37916 11.6479 7.72713 11.9335 8.13426 12.1022C8.54139 12.2708 8.98938 12.3149 9.42158 12.2289C9.85379 12.143 10.2508 11.9308 10.5624 11.6192C10.874 11.3076 11.0862 10.9106 11.1722 10.4784C11.2581 10.0462 11.214 9.59817 11.0454 9.19104C10.8767 8.78391 10.5912 8.43594 10.2248 8.19111C9.85835 7.94629 9.42758 7.81562 8.98691 7.81562Z" fill="#273BCD"/>
</svg>
