<svg width="16" height="17" viewBox="0 0 16 17" fill="none" xmlns="http://www.w3.org/2000/svg">
<g clip-path="url(#clip0_3436_1524)">
<path d="M9.97834 0H6.06854C2.71698 0 0 2.87836 0 6.42899V10.571C0 14.1216 2.71698 17 6.06854 17H9.97834C13.3299 17 16.0469 14.1216 16.0469 10.571V6.42899C16.0469 2.87836 13.3299 0 9.97834 0Z" fill="black"/>
<path d="M11.0501 8.55525C10.6557 8.13735 10.2095 7.84686 9.73806 7.69015L9.78015 7.64301C10.6581 6.66834 10.5835 5.4516 9.58051 4.39029C8.23475 2.9646 6.23476 2.93402 4.92748 4.31895C3.8908 5.4172 3.91606 6.80976 4.99483 7.95261C5.3893 8.37051 5.83548 8.661 6.30691 8.81771L6.26362 8.86485C5.38569 9.83952 5.46025 11.0563 6.46326 12.1176C7.80902 13.5433 9.80901 13.5738 11.1163 12.1889C12.153 11.0907 12.1277 9.69809 11.0489 8.55525H11.0501ZM7.83908 7.76532L7.79218 7.78316C7.05015 8.06346 6.35502 7.89145 5.78256 7.28372C5.09826 6.55877 5.09345 5.76757 5.76693 5.05409C6.64005 4.12911 7.91966 4.14312 8.81082 5.08721C9.37726 5.6873 9.45063 6.28867 9.02729 6.87602L8.95514 6.97539L9.58773 7.64556C9.02489 7.49394 8.42838 7.53089 7.83908 7.76532ZM8.20709 8.74254L8.25399 8.7247C8.99603 8.4444 9.69115 8.6164 10.2636 9.22414C10.9479 9.94909 10.9527 10.7403 10.2792 11.4538C9.40613 12.3788 8.12651 12.3647 7.23535 11.4206C6.66891 10.8206 6.59555 10.2192 7.01888 9.63184L7.09104 9.53246L6.45845 8.8623C7.02128 9.01392 7.6178 8.97697 8.20709 8.74254Z" fill="white"/>
<path d="M7.2362 11.4208C6.66976 10.8207 6.5964 10.2194 7.01973 9.63201L7.09188 9.53263L6.45929 8.86246C6.45929 8.86246 6.4617 8.86246 6.4629 8.86246H6.4617L6.30896 8.81787L6.26687 8.86374C5.38894 9.83841 5.4635 11.0551 6.46651 12.1165C6.83091 12.5025 7.24222 12.7853 7.67517 12.9663L8.48094 12.1126C8.03716 12.04 7.60421 11.8094 7.2362 11.4208Z" fill="url(#paint0_linear_3436_1524)"/>
<path d="M8.8098 5.08501C9.37625 5.6851 9.44961 6.28646 9.02628 6.87381L8.95412 6.97319L9.58671 7.64335C9.58671 7.64335 9.5843 7.64335 9.5831 7.64335H9.5843L9.73704 7.68794L9.77913 7.64208C10.6571 6.66741 10.5825 5.45067 9.57949 4.38936C9.21509 4.00331 8.80379 3.72047 8.37084 3.53955L7.56506 4.39318C8.00884 4.4658 8.44179 4.69641 8.8098 5.08501Z" fill="url(#paint1_linear_3436_1524)"/>
<path d="M10.797 11.7024L9.6825 12.3149L10.5476 14.0815L11.6621 13.4689L10.797 11.7024Z" fill="white"/>
<path d="M6.03955 1.98072L4.92505 2.59326L5.84053 4.46271L6.95503 3.85017L6.03955 1.98072Z" fill="white"/>
</g>
<defs>
<linearGradient id="paint0_linear_3436_1524" x1="6.70163" y1="13.3141" x2="7.17359" y2="8.28627" gradientUnits="userSpaceOnUse">
<stop offset="0.18" stop-color="#2F5ACF" stop-opacity="0"/>
<stop offset="0.79" stop-color="#2F5ACF"/>
</linearGradient>
<linearGradient id="paint1_linear_3436_1524" x1="9.37726" y1="3.82356" x2="8.38894" y2="7.30497" gradientUnits="userSpaceOnUse">
<stop offset="0.18" stop-color="#2F5ACF" stop-opacity="0"/>
<stop offset="0.79" stop-color="#2F5ACF"/>
</linearGradient>
<clipPath id="clip0_3436_1524">
<rect width="16" height="17" fill="white"/>
</clipPath>
</defs>
</svg>
