<svg width="17" height="17" viewBox="0 0 17 17" fill="none" xmlns="http://www.w3.org/2000/svg">
<path d="M0.899902 10.0385C0.458074 10.0385 0.0999023 9.68029 0.0999023 9.23846C0.0999024 8.79664 0.458075 8.43846 0.899902 8.43846L0.899902 10.0385ZM16.6656 8.67278C16.978 8.9852 16.978 9.49173 16.6656 9.80415L11.5744 14.8953C11.262 15.2077 10.7555 15.2077 10.443 14.8953C10.1306 14.5829 10.1306 14.0764 10.443 13.7639L14.9685 9.23847L10.443 4.71298C10.1306 4.40056 10.1306 3.89403 10.443 3.58161C10.7555 3.26919 11.262 3.26919 11.5744 3.58161L16.6656 8.67278ZM0.899902 8.43846L16.0999 8.43847L16.0999 10.0385L0.899902 10.0385L0.899902 8.43846Z" fill="white"/>
</svg>
