<svg width="16" height="16" viewBox="0 0 16 16" fill="none" xmlns="http://www.w3.org/2000/svg"><path d="M12.8021 0.0161133H3.19787C1.43133 0.0161133 0 1.44212 0 3.20866V12.7916C0 14.5529 1.43133 15.9842 3.19787 15.9842H12.8021C14.5687 15.9842 16 14.5582 16 12.7916V3.20866C15.9947 1.44212 14.5687 0.0161133 12.8021 0.0161133ZM14.9305 12.7863C14.9305 13.9569 13.9727 14.9147 12.8021 14.9147H3.19787C2.02195 14.9147 1.0695 13.9622 1.0695 12.7863V3.20334C1.0695 2.03274 2.02727 1.07498 3.19787 1.07498H12.8021C13.9781 1.07498 14.9305 2.02742 14.9305 3.20334V12.7863Z" fill="#2F5ACF"></path> <path d="M8.53963 4.74634H7.39032H7.37967C7.37435 5.72007 6.84758 6.32133 6.00156 6.32133C5.15553 6.32133 4.62876 5.72007 4.62344 4.74634H3.47412C3.47412 6.30537 4.44253 7.43872 6.00156 7.43872C6.8529 7.43872 7.52866 7.1035 7.9703 6.54481C8.32148 6.10317 8.51835 5.52851 8.53963 4.86872C8.53963 4.82615 8.53963 4.78891 8.53963 4.74634Z" fill="#2F5ACF"></path> <path d="M11.3595 4.74634C11.3542 5.72007 10.7955 6.32133 9.94945 6.32133C9.13535 6.32133 8.59261 5.76795 8.5394 4.86872C8.5394 4.83147 8.53408 4.78891 8.53408 4.74634H7.38477C7.38477 5.45402 7.59228 6.07657 7.96474 6.54481C8.4117 7.1035 9.09278 7.43872 9.94413 7.43872C11.5032 7.43872 12.5195 6.30537 12.5195 4.74634H11.3595Z" fill="#2F5ACF"></path> <path d="M4.62344 4.74634H3.47412C3.47412 4.75698 3.6976 10.1151 3.6976 10.1205H4.84691C4.84691 10.1098 4.62344 4.75698 4.62344 4.74634Z" fill="#2F5ACF"></path> <path d="M11.3748 4.74634H12.5242C12.5242 4.75698 12.3007 10.1151 12.3007 10.1205H11.1514C11.1514 10.1098 11.3748 4.75698 11.3748 4.74634Z" fill="#2F5ACF"></path> <path d="M12.3075 10.1206H3.69824V11.2433H12.3075V10.1206Z" fill="#2F5ACF"></path></svg>
