<svg width="108" height="114" viewBox="0 0 108 114" fill="none" xmlns="http://www.w3.org/2000/svg">
<g filter="url(#filter0_d_3548_661)">
<path d="M14.8216 79.4715C27.4257 101.302 55.3408 108.782 77.1717 96.1782L31.5282 17.1215C9.69734 29.7256 2.21752 57.6406 14.8216 79.4715Z" fill="#F0FF97"/>
<path d="M93.572 28.5284C106.176 50.3593 98.6963 78.2743 76.8654 90.8784L31.222 11.8217C53.0529 -0.782373 80.9679 6.69745 93.572 28.5284Z" fill="#2F5ACF"/>
<path d="M60.4606 45.7458C62.441 45.7458 64.3034 45.7325 66.1526 45.7458C67.1887 45.7592 67.7527 46.201 67.8576 47.0445C67.9756 48.1022 67.3723 48.8118 66.2444 48.8252C64.1198 48.852 62.0082 48.8386 59.8835 48.8386C59.2671 48.8386 58.6638 48.8654 58.0474 48.8252C57.2867 48.785 56.5391 48.6244 56.1719 47.8211C55.8047 47.0177 56.067 46.2948 56.5654 45.6387C58.5851 43.0146 60.618 40.3771 62.6509 37.7529C62.7689 37.5923 62.8869 37.4316 63.005 37.2843C62.8738 37.0567 62.6902 37.1638 62.5328 37.1504C61.1164 37.137 59.6868 37.1504 58.2704 37.137C57.9425 37.137 57.6146 37.0969 57.2998 37.0299C56.5523 36.8559 56.0932 36.0927 56.2637 35.343C56.3818 34.8342 56.7752 34.4192 57.2736 34.2987C57.5884 34.2184 57.9162 34.1782 58.2441 34.1782C60.5786 34.1648 62.9263 34.1648 65.2608 34.1782C65.6805 34.1648 66.0871 34.2184 66.4936 34.3255C67.3855 34.6334 67.7658 35.4769 67.4117 36.3605C67.0969 37.1237 66.5985 37.7797 66.1002 38.4357C64.3821 40.6716 62.664 42.8941 60.9459 45.1032C60.8016 45.2772 60.6705 45.4513 60.4606 45.7458Z" fill="white"/>
<path d="M75.6751 38.7037C75.9899 38.2887 76.3178 37.9004 76.8555 37.7933C77.8916 37.5791 78.8621 38.2619 78.8752 39.333C78.9146 42.0107 78.9015 44.6884 78.8752 47.3661C78.8752 48.0623 78.4293 48.6781 77.7867 48.879C77.1309 49.1333 76.3833 48.9325 75.9505 48.3568C75.7276 48.0756 75.6358 48.0221 75.321 48.2765C74.1275 49.2672 72.7766 49.4413 71.3208 48.9593C68.9863 48.1827 68.0289 46.3218 67.7666 44.0591C67.4912 41.609 68.2912 39.5204 70.4421 38.2351C72.2258 37.1506 74.0357 37.2444 75.6751 38.7037ZM71.0323 43.5905C71.0585 44.1796 71.2422 44.7419 71.5832 45.2105C72.2914 46.1745 73.6422 46.3753 74.5997 45.6523C74.757 45.5318 74.9013 45.3846 75.0325 45.2105C75.7669 44.193 75.7669 42.5194 75.0325 41.5019C74.6652 40.9797 74.0882 40.6718 73.4718 40.6584C72.0291 40.5647 71.0192 41.7027 71.0323 43.5905ZM84.764 43.6708C84.6591 40.23 86.8755 37.6594 90.0232 37.5657C93.3676 37.4586 95.807 39.748 95.9119 43.0951C96.0169 46.4824 93.984 48.879 90.8495 49.2003C87.4264 49.5484 84.7115 47.018 84.764 43.6708ZM88.0559 43.3495C88.0297 44.0189 88.2264 44.675 88.6199 45.2239C89.3412 46.1879 90.6921 46.3753 91.6364 45.6255C91.7806 45.5184 91.8987 45.3846 92.0167 45.2507C92.7774 44.2331 92.7774 42.5194 92.0298 41.5019C91.6626 40.9931 91.0855 40.6718 90.4691 40.6584C89.0527 40.5781 88.0559 41.6759 88.0559 43.3495ZM83.6098 41.0065C83.6098 43.0817 83.623 45.157 83.6098 47.2322C83.623 48.1827 82.8885 48.9727 81.9573 48.9994C81.7999 48.9994 81.6294 48.9861 81.4721 48.9459C80.8163 48.7718 80.3179 48.0623 80.3179 47.2188V36.5749C80.3179 35.9457 80.3048 35.3298 80.3179 34.7005C80.331 33.6696 80.9737 33.0002 81.9442 33.0002C82.941 32.9868 83.6098 33.6562 83.6098 34.7273C83.623 36.8159 83.6098 38.9179 83.6098 41.0065Z" fill="white"/>
<path d="M46.374 65.8797L43.1643 62.67C42.018 61.5236 40.0692 61.9822 39.6107 63.4724C39.2668 64.5041 38.1205 65.0773 37.0888 64.848C34.7961 64.2748 31.701 61.2944 31.1279 58.8871C30.784 57.8553 31.4718 56.709 32.5035 56.3652C33.9937 55.9066 34.4522 53.9579 33.3059 52.8115L30.0962 49.6018C29.1791 48.7994 27.8035 48.7994 27.0011 49.6018L24.8231 51.7799C22.645 54.0725 25.0523 60.148 30.4401 65.5358C35.8278 70.9235 41.9034 73.4455 44.196 71.1528L46.374 68.9748C47.1765 68.0577 47.1765 66.6821 46.374 65.8797Z" fill="#2F5ACF"/>
<path d="M32.456 78.6H33.536V87H32.456V83.256H27.872V87H26.804V78.6H27.872V82.272H32.456V78.6ZM37.7638 80.832C39.5158 80.832 40.8118 82.104 40.8118 83.964C40.8118 85.836 39.5158 87.12 37.7638 87.12C36.0238 87.12 34.7158 85.836 34.7158 83.964C34.7158 82.104 36.0238 80.832 37.7638 80.832ZM37.7638 81.768C36.6238 81.768 35.7718 82.596 35.7718 83.964C35.7718 85.356 36.6238 86.184 37.7638 86.184C38.9158 86.184 39.7678 85.356 39.7678 83.964C39.7678 82.596 38.9158 81.768 37.7638 81.768ZM44.6966 81.816H43.2686V85.128C43.2686 85.74 43.5086 86.088 44.0726 86.088H44.6966V87H43.9766C42.8126 87 42.2366 86.256 42.2366 85.212V81.816H41.1086V80.94H42.2366V79.62L43.2686 78.948V80.94H44.6966V81.816ZM47.1466 87C46.1026 87 45.5746 86.328 45.5746 85.38V78.6H46.6066V85.32C46.6066 85.812 46.7986 86.088 47.2906 86.088H47.7946V87H47.1466ZM49.0549 79.776C48.6469 79.776 48.3349 79.488 48.3349 79.056C48.3349 78.648 48.6469 78.348 49.0549 78.348C49.4749 78.348 49.7989 78.648 49.7989 79.056C49.7989 79.488 49.4749 79.776 49.0549 79.776ZM49.5709 80.94V87H48.5389V80.94H49.5709ZM53.7861 80.832C55.1061 80.832 56.0541 81.756 56.0541 83.208V87H55.0221V83.364C55.0221 82.38 54.4341 81.756 53.5701 81.756C52.6221 81.756 51.9381 82.392 51.9381 83.4V87H50.9061V80.94H51.9381V81.876C52.3461 81.144 53.0541 80.832 53.7861 80.832ZM62.716 83.904C62.716 84.012 62.716 84.108 62.704 84.192H58.096C58.168 85.512 58.948 86.196 59.956 86.196C60.76 86.196 61.432 85.848 61.816 84.876L62.692 85.236C62.14 86.616 61.072 87.12 59.944 87.12C58.264 87.12 57.04 85.848 57.04 83.964C57.04 82.056 58.264 80.832 59.944 80.832C61.54 80.832 62.716 82.056 62.716 83.904ZM59.932 81.72C58.972 81.72 58.3 82.32 58.132 83.4H61.636C61.48 82.26 60.808 81.72 59.932 81.72Z" fill="#2F5ACF"/>
</g>
<defs>
<filter id="filter0_d_3548_661" x="-2" y="0.699028" width="112" height="112.602" filterUnits="userSpaceOnUse" color-interpolation-filters="sRGB">
<feFlood flood-opacity="0" result="BackgroundImageFix"/>
<feColorMatrix in="SourceAlpha" type="matrix" values="0 0 0 0 0 0 0 0 0 0 0 0 0 0 0 0 0 0 127 0" result="hardAlpha"/>
<feOffset dy="3"/>
<feGaussianBlur stdDeviation="4"/>
<feComposite in2="hardAlpha" operator="out"/>
<feColorMatrix type="matrix" values="0 0 0 0 0 0 0 0 0 0 0 0 0 0 0 0 0 0 0.2 0"/>
<feBlend mode="normal" in2="BackgroundImageFix" result="effect1_dropShadow_3548_661"/>
<feBlend mode="normal" in="SourceGraphic" in2="effect1_dropShadow_3548_661" result="shape"/>
</filter>
</defs>
</svg>
