<svg width="16" height="16" viewBox="0 0 16 16" fill="none" xmlns="http://www.w3.org/2000/svg">
<path d="M14.7624 5.22217H0.965575C0.927043 5.64149 0 15.9999 0 15.9999H15.8481C15.8096 15.6327 14.7828 5.44656 14.7624 5.22217ZM1.75889 14.5311H1.61609C1.62063 14.4767 1.62289 14.4405 1.62516 14.4042C1.68862 13.7061 1.75209 13.0057 1.81329 12.3053C1.89715 11.3624 1.97875 10.4195 2.06261 9.47886C2.13968 8.59262 2.21901 7.70864 2.29834 6.82239C2.30967 6.6796 2.30741 6.67733 2.457 6.67733H13.4183C13.4229 6.72493 13.4251 6.75893 13.4297 6.79519C13.4773 7.32558 13.9396 11.7613 14.2252 14.5334C10.0932 14.5311 3.8283 14.5311 1.75889 14.5311Z" fill="white"/>
<path d="M12.3446 4.51508H10.8872C10.8419 3.37725 10.35 2.48874 9.36857 1.89262C8.79738 1.54583 8.16726 1.4189 7.50315 1.4937C5.97545 1.66369 4.79682 2.95792 4.78775 4.51282H3.31445C3.33485 4.28162 3.34165 4.0527 3.38018 3.83057C3.69298 1.93342 5.04388 0.512254 6.92516 0.101997C7.11329 0.0611984 7.30595 0.0475988 7.49635 0.0203995C7.52808 0.0158663 7.55755 0.00679983 7.58928 0H8.0698C8.22846 0.0203995 8.38486 0.040799 8.54352 0.063465C10.3387 0.319592 11.8868 1.77929 12.2449 3.56084C12.297 3.81697 12.3152 4.0799 12.3446 4.33829C12.3514 4.39495 12.3446 4.45162 12.3446 4.51508Z" fill="white"/>
</svg>
