<svg width="20" height="21" viewBox="0 0 20 21" fill="none" xmlns="http://www.w3.org/2000/svg">
<path d="M9.64898 1.69992C9.87624 1.26918 10.4931 1.26919 10.7204 1.69992L13.0458 6.10742C13.1335 6.27353 13.2932 6.38958 13.4783 6.4216L18.3886 7.27122C18.8685 7.35425 19.0591 7.94095 18.7197 8.2902L15.2465 11.8638C15.1156 11.9985 15.0546 12.1863 15.0814 12.3722L15.7907 17.3047C15.86 17.7868 15.361 18.1494 14.9239 17.9345L10.452 15.7356C10.2834 15.6527 10.086 15.6527 9.91743 15.7356L5.44546 17.9345C5.00842 18.1494 4.50934 17.7868 4.57867 17.3047L5.28802 12.3722C5.31476 12.1863 5.25374 11.9985 5.12284 11.8638L1.64966 8.2902C1.31023 7.94095 1.50086 7.35425 1.98075 7.27122L6.89112 6.4216C7.07618 6.38958 7.23592 6.27353 7.32356 6.10742L9.64898 1.69992Z" fill="#D1D1D1"/>
<path d="M5.29835 18.0071L9.89466 15.7471C10.0722 15.6598 10.1848 15.4791 10.1848 15.2812V1.6944C10.1848 1.43354 9.83537 1.34702 9.71364 1.57774L7.30377 6.14529C7.22865 6.28767 7.09173 6.38715 6.9331 6.41459L1.81921 7.29943C1.40788 7.3706 1.24448 7.87348 1.53542 8.17283L5.15256 11.8945C5.26476 12.01 5.31705 12.1709 5.29414 12.3303L4.55539 17.4673C4.49596 17.8805 4.92374 18.1913 5.29835 18.0071Z" fill="#1A1A1A"/>
</svg>
