<svg width="61" height="20" viewBox="0 0 61 20" fill="none" xmlns="http://www.w3.org/2000/svg">
<path d="M11.8054 13.9627C11.9776 12.5715 11.0685 11.6841 8.6689 10.9292C7.5066 10.5382 6.95909 10.0264 6.97189 9.32066C7.0204 8.53941 7.75884 7.96962 8.73815 7.95059C9.4169 7.96395 10.1709 8.12738 10.904 8.60954C10.9911 8.66364 11.0525 8.65516 11.102 8.58129C11.1699 8.47362 11.3383 8.21521 11.3949 8.12257C11.4333 8.06206 11.4407 7.98392 11.3437 7.91419C11.2047 7.81253 10.8149 7.60675 10.6057 7.52046C10.0371 7.28583 9.39901 7.13809 8.71857 7.13942C7.28505 7.14537 6.1554 8.03935 6.06116 9.23236C5.9995 10.0932 6.43183 10.7925 7.36012 11.3256C7.55681 11.4386 8.62175 11.8562 9.04527 11.9861C10.3777 12.3951 11.0695 13.1282 10.9067 13.9829C10.7589 14.7584 9.93128 15.2592 8.79045 15.2744C7.88588 15.2404 7.0719 14.8769 6.44071 14.393C6.42472 14.3812 6.34545 14.3206 6.33468 14.3125C6.25662 14.2523 6.17146 14.2562 6.11963 14.3341C6.08121 14.3914 5.8373 14.7388 5.77571 14.8299C5.71785 14.9102 5.74882 14.9544 5.80891 15.0036C6.07268 15.2203 6.42255 15.4574 6.66118 15.5773C7.31676 15.9068 8.02837 16.0874 8.78544 16.1157C9.27224 16.1482 9.88636 16.0451 10.3445 15.8534C11.1676 15.509 11.6991 14.8212 11.8054 13.9627ZM8.84425 1.69982C7.29101 1.69982 6.02491 3.14296 5.96563 4.94937H11.7229C11.6636 3.14296 10.3975 1.69982 8.84425 1.69982ZM14.7411 18.4309L14.6817 18.4314L2.82615 18.4297H2.82588C2.01949 18.3999 1.42651 17.7556 1.34562 16.9557L1.33769 16.8115L0.807589 5.31538L0.807657 5.31531C0.806912 5.30663 0.806641 5.29788 0.806641 5.289C0.806641 5.10352 0.957459 4.95277 1.1448 4.94943L4.88178 4.94937C4.97338 2.56415 6.7124 0.662231 8.84425 0.662231C10.9761 0.662231 12.7151 2.56415 12.8067 4.94937H16.533H16.5383C16.7287 4.94937 16.8829 5.10138 16.8829 5.289C16.8829 5.29487 16.8827 5.30068 16.8825 5.3065V5.3067L16.3016 16.8481L16.2963 16.9458C16.2261 17.7557 15.5616 18.409 14.7411 18.4309ZM23.287 10.7731C25.8401 11.5263 26.8445 12.4685 26.6839 13.9811C26.585 14.913 26.0197 15.6701 25.1338 16.0579C24.6454 16.2717 23.9913 16.3932 23.4694 16.3674C22.666 16.3512 21.9066 16.173 21.2036 15.8355C20.9496 15.7137 20.5753 15.4716 20.2841 15.2413L20.2831 15.2403C20.147 15.1274 20.1308 15.054 20.2239 14.9179C20.248 14.881 20.292 14.8151 20.3939 14.6637C20.4814 14.5337 20.5687 14.403 20.5729 14.3966C20.6819 14.2345 20.797 14.2345 20.9558 14.3421C20.9569 14.3429 20.9713 14.3533 21.0121 14.3833C21.0446 14.407 21.0645 14.4216 21.0682 14.4242C21.7911 14.9574 22.6258 15.2579 23.4579 15.2749C24.5966 15.2402 25.3996 14.7363 25.5287 13.9884C25.6707 13.1658 24.9813 12.4606 23.6346 12.0735C23.1634 11.9381 22.134 11.5576 21.8466 11.4088C20.8365 10.8529 20.3495 10.0975 20.4002 9.15753C20.48 7.85625 21.6898 6.86829 23.2347 6.83537C23.9136 6.82241 24.5931 6.94837 25.2478 7.20472C25.4837 7.29715 25.8971 7.50794 26.0462 7.61274C26.2195 7.73336 26.2195 7.81658 26.135 7.97247C26.1231 7.99277 26.0781 8.05696 25.9615 8.2214L25.9611 8.22193C25.8379 8.39545 25.801 8.44788 25.7902 8.46565C25.6889 8.59502 25.6039 8.63496 25.4306 8.53177C24.7488 8.10117 24.0576 7.898 23.2762 7.89606C22.3132 7.93133 21.6058 8.4941 21.5719 9.24048C21.5722 9.913 22.1128 10.4014 23.287 10.7731ZM30.4486 10.3959C32.0062 10.3959 33.2924 11.6355 33.2982 13.1545V16.1218C33.2982 16.293 33.2536 16.3333 33.0831 16.3333H32.3675C32.1953 16.3333 32.1524 16.293 32.1524 16.1218V13.1633C32.1485 12.2473 31.387 11.5063 30.4486 11.5063C29.5125 11.5063 28.752 12.2438 28.7447 13.1568V16.1218C28.7447 16.2692 28.6859 16.3334 28.5297 16.3334H27.8124C27.6419 16.3334 27.5973 16.2712 27.5973 16.1218V7.04362C27.5973 6.8878 27.6419 6.83203 27.8124 6.83203H28.5297C28.6834 6.83203 28.7447 6.8908 28.7447 7.04362V10.9504C29.2347 10.5933 29.8291 10.3959 30.4486 10.3959ZM37.2921 15.264C38.3704 15.264 39.2441 14.42 39.2441 13.3793C39.2441 12.3386 38.3703 11.4945 37.2921 11.4945C36.2137 11.4945 35.34 12.3386 35.34 13.3793C35.34 14.42 36.2137 15.264 37.2921 15.264ZM37.2927 10.402C38.9951 10.402 40.3755 11.7354 40.3755 13.3808C40.3755 15.0261 38.9951 16.3595 37.2927 16.3595C35.5903 16.3595 34.2098 15.0261 34.2098 13.3808C34.2098 11.7354 35.5902 10.402 37.2927 10.402ZM56.3389 12.6893H59.754C59.5084 12.0023 58.7939 11.4888 58.0313 11.4888C57.2405 11.4888 56.563 11.9687 56.3389 12.6893ZM60.601 13.7815C60.596 13.7815 60.5909 13.7813 60.5874 13.7812H56.2687C56.3783 14.328 56.7592 14.7936 57.286 15.054C57.4224 15.1183 57.5711 15.1717 57.7297 15.2137C58.5012 15.3728 59.3869 15.2569 60.0619 14.6658C60.0716 14.6553 60.0899 14.6439 60.1097 14.6268C60.2228 14.5284 60.3024 14.5533 60.3911 14.6624C60.3911 14.6624 60.5178 14.8361 60.7443 15.1914C60.8418 15.3412 60.8346 15.4132 60.6712 15.5792C60.6645 15.5859 60.6517 15.5977 60.6328 15.6141C60.6018 15.6409 60.5647 15.6708 60.5216 15.7029C60.3989 15.7941 60.252 15.8852 60.0809 15.9701C59.4486 16.2841 58.6692 16.4319 57.7429 16.322C57.7121 16.3174 57.6876 16.3136 57.6638 16.3096V16.3112L57.6111 16.3015C56.934 16.1772 56.3259 15.8446 55.8785 15.3591C55.876 15.3566 55.8759 15.3565 55.8753 15.3557C55.4738 14.9195 55.2156 14.3767 55.1348 13.7812H55.1341L55.1294 13.7425C55.1149 13.6213 55.1076 13.499 55.1076 13.3761C55.1076 11.7314 56.4159 10.3974 58.0304 10.3974C59.6451 10.3974 60.9533 11.7313 60.9533 13.3761C60.9533 13.3888 60.9532 13.3946 60.9532 13.3981C60.9537 13.406 60.954 13.4141 60.954 13.4232C60.954 13.6147 60.8053 13.7727 60.6168 13.7811C60.6113 13.7813 60.6062 13.7815 60.601 13.7815ZM44.3531 15.2486C45.4118 15.2486 46.2701 14.4048 46.2701 13.3639C46.2701 12.323 45.4118 11.4791 44.3531 11.4791C43.3124 11.4791 42.4625 12.2955 42.4366 13.315V13.4122C42.4627 14.4326 43.3126 15.2486 44.3531 15.2486ZM44.3536 10.3866C46.0267 10.3866 47.3832 11.7202 47.3832 13.3653C47.3832 15.0105 46.0267 16.3442 44.3536 16.3442C43.6444 16.3442 42.973 16.1035 42.4366 15.6719V19.1692C42.4366 19.3262 42.3921 19.3807 42.2215 19.3807H41.5393C41.3687 19.3807 41.3241 19.3249 41.3241 19.1692V10.5982C41.3241 10.4337 41.3687 10.3866 41.5393 10.3866H42.2215C42.3921 10.3866 42.4366 10.438 42.4366 10.5982V11.0587C42.973 10.6272 43.6444 10.3866 44.3536 10.3866ZM49.5719 12.6893H52.987C52.7414 12.0023 52.027 11.4888 51.2643 11.4888C50.4735 11.4888 49.796 11.9687 49.5719 12.6893ZM54.1863 13.3761C54.1863 13.3888 54.1863 13.3946 54.1861 13.3981C54.1867 13.406 54.1869 13.4141 54.1869 13.4232C54.1869 13.6147 54.0383 13.7727 53.8499 13.7811C53.8444 13.7813 53.8392 13.7815 53.834 13.7815C53.8289 13.7815 53.8239 13.7813 53.8204 13.7812H49.5017C49.6112 14.328 49.9922 14.7936 50.519 15.054C50.6555 15.1183 50.8041 15.1717 50.9627 15.2137C51.7343 15.3728 52.6199 15.2569 53.2949 14.6658C53.3046 14.6553 53.3229 14.6439 53.3427 14.6268C53.4557 14.5284 53.5354 14.5533 53.6241 14.6624C53.6241 14.6624 53.7509 14.8361 53.9772 15.1914C54.0747 15.3412 54.0676 15.4132 53.9042 15.5792C53.8975 15.5859 53.8847 15.5977 53.8659 15.6141C53.8348 15.6409 53.7977 15.6708 53.7546 15.7029C53.6319 15.7941 53.485 15.8852 53.3139 15.9701C52.6816 16.2841 51.9022 16.4319 50.9759 16.322C50.9452 16.3174 50.9206 16.3136 50.8969 16.3096V16.3112L50.8441 16.3015C50.1671 16.1772 49.5589 15.8446 49.1114 15.3591C49.1091 15.3566 49.1089 15.3565 49.1082 15.3557C48.7069 14.9195 48.4486 14.3767 48.3678 13.7812H48.3671L48.3624 13.7425C48.3479 13.6213 48.3405 13.499 48.3405 13.3761C48.3405 11.7314 49.6489 10.3974 51.2635 10.3974C52.8781 10.3974 54.1863 11.7313 54.1863 13.3761Z" fill="black"/>
</svg>
